<svg width="15" height="14" viewBox="0 0 15 14" fill="none" xmlns="http://www.w3.org/2000/svg">
<path d="M3.97383 4.91602H1.16331C1.03857 4.91602 0.9375 5.00991 0.9375 5.1257V13.5098C0.9375 13.6256 1.03857 13.7195 1.16331 13.7195H3.97383C4.09856 13.7195 4.19964 13.6256 4.19964 13.5098V5.1257C4.19964 5.00991 4.09856 4.91602 3.97383 4.91602Z" fill="white"/>
<path d="M2.57334 0.748047C1.55071 0.748047 0.71875 1.51974 0.71875 2.46828C0.71875 3.41724 1.55071 4.18923 2.57334 4.18923C3.59516 4.18923 4.42645 3.41719 4.42645 2.46828C4.42649 1.51974 3.59516 0.748047 2.57334 0.748047Z" fill="white"/>
<path d="M11.1281 4.70703C9.99937 4.70703 9.16493 5.15762 8.65881 5.66961V5.12508C8.65881 5.0093 8.55773 4.9154 8.433 4.9154H5.74143C5.6167 4.9154 5.51562 5.0093 5.51562 5.12508V13.5092C5.51562 13.625 5.6167 13.7189 5.74143 13.7189H8.54581C8.67055 13.7189 8.77162 13.625 8.77162 13.5092V9.36099C8.77162 7.96315 9.18051 7.41858 10.2299 7.41858C11.3727 7.41858 11.4635 8.29159 11.4635 9.4329V13.5092C11.4635 13.6251 11.5646 13.7189 11.6893 13.7189H14.4947C14.6195 13.7189 14.7205 13.6251 14.7205 13.5092V8.91039C14.7205 6.83186 14.2937 4.70703 11.1281 4.70703Z" fill="white"/>
</svg>
