<svg width="14" height="15" viewBox="0 0 14 15" fill="none" xmlns="http://www.w3.org/2000/svg">
<path d="M12.3089 3.46964C11.6015 3.31832 10.9609 2.94501 10.4805 2.40413C10.0002 1.86325 9.70515 1.18307 9.63844 0.462766V0.150391H7.19823V9.83467C7.19672 10.2635 7.06092 10.681 6.8099 11.0285C6.55888 11.3761 6.20526 11.6363 5.79874 11.7725C5.39222 11.9088 4.95323 11.9142 4.54347 11.7881C4.1337 11.662 3.77374 11.4106 3.51419 11.0694L3.51277 11.0687L3.51419 11.0694C3.25061 10.7224 3.10439 10.3005 3.09675 9.86487C3.0891 9.42918 3.22042 9.00242 3.47167 8.64643C3.72291 8.29043 4.08102 8.02373 4.49406 7.88497C4.90711 7.74622 5.35361 7.74265 5.76882 7.87476V5.39559C4.84292 5.2676 3.90017 5.43221 3.07244 5.8664C2.24471 6.30059 1.57339 6.98265 1.15238 7.81717C0.731375 8.65168 0.581741 9.59692 0.724409 10.5207C0.867076 11.4445 1.29491 12.3005 1.94807 12.9691C2.57094 13.6064 3.36961 14.0437 4.24211 14.2251C5.11462 14.4065 6.02138 14.3237 6.84665 13.9874C7.67192 13.6512 8.37827 13.0766 8.87553 12.3371C9.37278 11.5975 9.63839 10.7266 9.63844 9.83547V4.88701C10.6246 5.59204 11.807 5.97008 13.0193 5.96793V3.5433C12.7806 3.5436 12.5425 3.51891 12.3089 3.46964Z" fill="white"/>
</svg>
