<svg width="15" height="13" viewBox="0 0 15 13" fill="none" xmlns="http://www.w3.org/2000/svg">
<path d="M14.6958 1.74127C14.155 1.98047 13.5815 2.13757 12.9944 2.20736C13.6133 1.8372 14.0765 1.25466 14.2977 0.568267C13.7169 0.913935 13.0801 1.15619 12.4164 1.28723C11.9705 0.810215 11.3796 0.493866 10.7354 0.387348C10.0913 0.280829 9.42998 0.390114 8.85433 0.698213C8.27869 1.00632 7.82096 1.49595 7.55231 2.09104C7.28366 2.68612 7.21913 3.35327 7.36877 3.9888C6.19089 3.92977 5.03859 3.62367 3.98668 3.0904C2.93478 2.55713 2.00678 1.8086 1.26294 0.893395C0.999644 1.34563 0.861282 1.85971 0.862022 2.38301C0.862022 3.41009 1.38477 4.31747 2.17952 4.84872C1.70919 4.83391 1.24922 4.7069 0.837937 4.47826V4.5151C0.838079 5.19913 1.07478 5.86207 1.50791 6.39151C1.94104 6.92095 2.54395 7.28431 3.2144 7.41997C2.77779 7.53829 2.31999 7.55574 1.87565 7.47097C2.06468 8.05976 2.43311 8.57469 2.92936 8.94368C3.4256 9.31266 4.02482 9.5172 4.6431 9.52868C4.02861 10.0113 3.32502 10.3681 2.57256 10.5786C1.8201 10.7891 1.03353 10.8492 0.257812 10.7555C1.61193 11.6264 3.18826 12.0887 4.79823 12.0872C10.2474 12.0872 13.2274 7.57298 13.2274 3.65802C13.2274 3.53051 13.2239 3.40161 13.2182 3.27552C13.7982 2.85631 14.2988 2.33699 14.6965 1.74198L14.6958 1.74127Z" fill="white"/>
</svg>
