<svg width="15" height="15" viewBox="0 0 15 15" fill="none" xmlns="http://www.w3.org/2000/svg">
<path d="M10.4902 14.3594V8.84463H12.3371L12.6134 6.7008H10.4902V5.3328C10.4902 4.71213 10.6627 4.28859 11.5526 4.28859H12.6878V2.37117C12.1382 2.31286 11.5859 2.28457 11.0332 2.28645C9.39684 2.28645 8.27663 3.28554 8.27663 5.12063V6.7008H6.4257V8.84463H8.27663V14.3594H1.46354C1.25358 14.3594 1.05221 14.276 0.903749 14.1275C0.755282 13.9791 0.671875 13.7777 0.671875 13.5677V0.901045C0.671875 0.691079 0.755282 0.489715 0.903749 0.341249C1.05221 0.192782 1.25358 0.109375 1.46354 0.109375H14.1302C14.3402 0.109375 14.5416 0.192782 14.69 0.341249C14.8385 0.489715 14.9219 0.691079 14.9219 0.901045V13.5677C14.9219 13.7777 14.8385 13.9791 14.69 14.1275C14.5416 14.276 14.3402 14.3594 14.1302 14.3594H10.4902Z" fill="white"/>
</svg>
