<svg width="17" height="14" viewBox="0 0 17 14" fill="none" xmlns="http://www.w3.org/2000/svg">
<path d="M15.9091 2.87797C16.2709 4.28872 16.2709 7.23372 16.2709 7.23372C16.2709 7.23372 16.2709 10.1787 15.9091 11.5895C15.708 12.3693 15.1198 12.9828 14.3748 13.1902C13.0219 13.5671 8.35417 13.5671 8.35417 13.5671C8.35417 13.5671 3.68887 13.5671 2.33354 13.1902C1.58541 12.9797 0.998005 12.3669 0.799292 11.5895C0.4375 10.1787 0.4375 7.23372 0.4375 7.23372C0.4375 7.23372 0.4375 4.28872 0.799292 2.87797C1.00038 2.09818 1.58858 1.48464 2.33354 1.27722C3.68887 0.90039 8.35417 0.900391 8.35417 0.900391C8.35417 0.900391 13.0219 0.90039 14.3748 1.27722C15.1229 1.48781 15.7104 2.10055 15.9091 2.87797ZM6.77083 10.0046L11.5209 7.23372L6.77083 4.46289V10.0046Z" fill="white"/>
</svg>
