<svg width="15" height="15" viewBox="0 0 15 15" fill="none" xmlns="http://www.w3.org/2000/svg">
<path d="M7.08333 0.150391C9.00788 0.150391 9.248 0.157474 10.0031 0.192891C10.7574 0.228307 11.271 0.346599 11.7229 0.522266C12.1904 0.702182 12.5842 0.945845 12.9781 1.33897C13.3382 1.69306 13.6169 2.12139 13.7948 2.59414C13.9697 3.04534 14.0887 3.55959 14.1241 4.31397C14.1574 5.06905 14.1666 5.30918 14.1666 7.23372C14.1666 9.15826 14.1596 9.39839 14.1241 10.1535C14.0887 10.9079 13.9697 11.4214 13.7948 11.8733C13.6175 12.3463 13.3387 12.7748 12.9781 13.1285C12.6239 13.4886 12.1956 13.7672 11.7229 13.9452C11.2717 14.1202 10.7574 14.2392 10.0031 14.2746C9.248 14.3079 9.00788 14.3171 7.08333 14.3171C5.15879 14.3171 4.91866 14.31 4.16359 14.2746C3.40921 14.2392 2.89566 14.1202 2.44375 13.9452C1.97081 13.7678 1.54242 13.489 1.18859 13.1285C0.828325 12.7745 0.549618 12.3461 0.371875 11.8733C0.196208 11.4221 0.077917 10.9079 0.0425 10.1535C0.00920799 9.39839 0 9.15826 0 7.23372C0 5.30918 0.00708299 5.06905 0.0425 4.31397C0.077917 3.55889 0.196208 3.04605 0.371875 2.59414C0.549126 2.1211 0.827905 1.69265 1.18859 1.33897C1.54252 0.978595 1.97088 0.699866 2.44375 0.522266C2.89566 0.346599 3.40851 0.228307 4.16359 0.192891C4.91866 0.159599 5.15879 0.150391 7.08333 0.150391ZM7.08333 3.69205C6.14402 3.69205 5.24319 4.06519 4.579 4.72938C3.91481 5.39357 3.54167 6.29441 3.54167 7.23372C3.54167 8.17303 3.91481 9.07388 4.579 9.73808C5.24319 10.4023 6.14402 10.7754 7.08333 10.7754C8.02264 10.7754 8.92348 10.4023 9.58762 9.73808C10.2518 9.07388 10.625 8.17303 10.625 7.23372C10.625 6.29441 10.2518 5.39357 9.58762 4.72938C8.92348 4.06519 8.02264 3.69205 7.08333 3.69205ZM11.6875 3.51497C11.6875 3.28014 11.5942 3.05493 11.4281 2.88889C11.2621 2.72284 11.0369 2.62955 10.8021 2.62955C10.5672 2.62955 10.342 2.72284 10.176 2.88889C10.0099 3.05493 9.91663 3.28014 9.91663 3.51497C9.91663 3.7498 10.0099 3.97501 10.176 4.14105C10.342 4.3071 10.5672 4.40039 10.8021 4.40039C11.0369 4.40039 11.2621 4.3071 11.4281 4.14105C11.5942 3.97501 11.6875 3.7498 11.6875 3.51497ZM7.08333 5.10872C7.64691 5.10872 8.18742 5.3326 8.58593 5.73112C8.98446 6.12963 9.20833 6.67013 9.20833 7.23372C9.20833 7.7973 8.98446 8.33782 8.58593 8.73633C8.18742 9.13485 7.64691 9.35872 7.08333 9.35872C6.51974 9.35872 5.97925 9.13485 5.58074 8.73633C5.18222 8.33782 4.95833 7.7973 4.95833 7.23372C4.95833 6.67013 5.18222 6.12963 5.58074 5.73112C5.97925 5.3326 6.51974 5.10872 7.08333 5.10872Z" fill="white"/>
</svg>
